<svg width="30" height="30" viewBox="0 0 30 30" fill="none" xmlns="http://www.w3.org/2000/svg">
<path d="M20.1562 16.4073L25.3124 11.251M13.5937 12.6568L17.3437 16.4068M4.68742 18.7506L10.7812 12.6568M28.1249 9.84473C28.1249 10.6214 27.4953 11.251 26.7187 11.251C25.942 11.251 25.3124 10.6214 25.3124 9.84473C25.3124 9.06808 25.942 8.43848 26.7187 8.43848C27.4953 8.43848 28.1249 9.06808 28.1249 9.84473ZM20.1562 17.8136C20.1562 18.5902 19.5266 19.2198 18.7499 19.2198C17.9733 19.2198 17.3437 18.5902 17.3437 17.8136C17.3437 17.0369 17.9733 16.4073 18.7499 16.4073C19.5266 16.4073 20.1562 17.0369 20.1562 17.8136ZM13.5937 11.2505C13.5937 12.0272 12.9641 12.6568 12.1875 12.6568C11.4108 12.6568 10.7812 12.0272 10.7812 11.2505C10.7812 10.4739 11.4108 9.84429 12.1875 9.84429C12.9641 9.84429 13.5937 10.4739 13.5937 11.2505ZM4.6875 20.1569C4.6875 20.9336 4.0579 21.5632 3.28125 21.5632C2.5046 21.5632 1.875 20.9336 1.875 20.1569C1.875 19.3803 2.5046 18.7507 3.28125 18.7507C4.0579 18.7507 4.6875 19.3803 4.6875 20.1569Z" stroke="#5BC858" stroke-width="2.5" stroke-linecap="round" stroke-linejoin="round"/>
</svg>
