<svg width="30" height="30" viewBox="0 0 30 30" fill="none" xmlns="http://www.w3.org/2000/svg">
<path d="M17.8111 22.4998V21.0935C17.8111 19.3943 19.6591 17.7871 20.8579 16.6404C22.5478 15.025 23.4361 12.8547 23.4361 10.3123C23.4361 5.62479 19.7019 1.87479 14.9986 1.87479C13.8897 1.8717 12.7911 2.08783 11.766 2.51076C10.7409 2.93368 9.80957 3.55507 9.02546 4.33918C8.24135 5.12329 7.61996 6.05466 7.19703 7.07974C6.77411 8.10482 6.55797 9.20339 6.56107 10.3123C6.56107 12.7639 7.48744 15.0812 9.13919 16.6404C10.3316 17.766 12.1861 19.3767 12.1861 21.0935V22.4998" stroke="#5BC858" stroke-width="2.5" stroke-linecap="round" stroke-linejoin="round"/>
<path d="M13.124 28.1248H16.8768" stroke="#5BC858" stroke-width="2.5" stroke-linecap="round" stroke-linejoin="round"/>
<path d="M12.187 25.3123H17.8162" stroke="#5BC858" stroke-width="2.5" stroke-linecap="round" stroke-linejoin="round"/>
<path d="M14.9995 22.5016V15.0005" stroke="#5BC858" stroke-width="2.5" stroke-linecap="round" stroke-linejoin="round"/>
<path d="M17.2284 14.0623C17.2284 14.0623 15.9671 15.0004 15.0002 15.0004C14.0333 15.0004 12.772 14.0623 12.772 14.0623" stroke="#5BC858" stroke-width="2.5" stroke-linecap="round" stroke-linejoin="round"/>
</svg>
