<svg width="20" height="20" viewBox="0 0 20 20" fill="none" xmlns="http://www.w3.org/2000/svg">
<path d="M15.2735 18.7516C14.511 18.7516 13.4399 18.4758 11.836 17.5797C9.88562 16.486 8.37703 15.4762 6.43718 13.5414C4.56687 11.6723 3.65671 10.4621 2.38288 8.14417C0.94382 5.52698 1.18913 4.15511 1.46335 3.56878C1.78991 2.868 2.27195 2.44886 2.89499 2.03284C3.24888 1.80098 3.62338 1.60222 4.01374 1.43909C4.05281 1.42229 4.08913 1.40628 4.12156 1.39183C4.31492 1.30472 4.60788 1.17308 4.97898 1.3137C5.22663 1.40667 5.44773 1.5969 5.79382 1.9387C6.50359 2.6387 7.47351 4.19769 7.83132 4.96331C8.07156 5.47933 8.23054 5.81995 8.23093 6.20198C8.23093 6.64925 8.00593 6.99417 7.73288 7.36644C7.68171 7.43636 7.63093 7.50315 7.58171 7.568C7.28445 7.95862 7.21921 8.07151 7.26218 8.27308C7.34929 8.67815 7.9989 9.88402 9.06648 10.9492C10.1341 12.0145 11.3052 12.6231 11.7118 12.7098C11.9219 12.7547 12.0372 12.6867 12.4403 12.3789C12.4981 12.3348 12.5575 12.2891 12.6196 12.2434C13.036 11.9336 13.3649 11.7145 13.8016 11.7145H13.804C14.1841 11.7145 14.5094 11.8793 15.0485 12.1512C15.7516 12.5059 17.3575 13.4633 18.0618 14.1739C18.4044 14.5192 18.5954 14.7395 18.6887 14.9867C18.8294 15.359 18.6969 15.6508 18.6106 15.8461C18.5962 15.8785 18.5802 15.9141 18.5634 15.9535C18.3989 16.3432 18.199 16.7169 17.9661 17.07C17.5509 17.691 17.1302 18.1719 16.4278 18.4989C16.0672 18.6694 15.6725 18.7559 15.2735 18.7516Z" fill="#4F615D"/>
</svg>
