<svg width="24" height="24" viewBox="0 0 24 24" fill="none" xmlns="http://www.w3.org/2000/svg">
<path d="M12.0015 2.25024C6.62537 2.25024 2.25146 6.62415 2.25146 12.0002C2.25146 17.3763 6.62537 21.7502 12.0015 21.7502C17.3776 21.7502 21.7515 17.3763 21.7515 12.0002C21.7515 6.62415 17.3776 2.25024 12.0015 2.25024ZM17.0757 8.73259L10.7757 16.2326C10.7066 16.3149 10.6206 16.3814 10.5235 16.4276C10.4265 16.4738 10.3206 16.4985 10.2132 16.5002H10.2005C10.0954 16.5002 9.99146 16.4781 9.89545 16.4353C9.79943 16.3925 9.71349 16.33 9.64318 16.2518L6.94318 13.2518C6.87461 13.1791 6.82127 13.0934 6.7863 12.9997C6.75132 12.9061 6.73542 12.8064 6.73951 12.7065C6.74361 12.6067 6.76764 12.5086 6.81017 12.4182C6.8527 12.3277 6.91289 12.2467 6.98719 12.1798C7.06149 12.1129 7.1484 12.0616 7.24283 12.0288C7.33725 11.996 7.43728 11.9824 7.53703 11.9889C7.63678 11.9953 7.73424 12.0216 7.82368 12.0662C7.91313 12.1108 7.99275 12.1729 8.05787 12.2487L10.1808 14.6074L15.9272 7.7679C16.0561 7.61888 16.2385 7.52656 16.4349 7.51091C16.6313 7.49526 16.826 7.55753 16.9769 7.68426C17.1278 7.81099 17.2227 7.99201 17.2412 8.18817C17.2597 8.38434 17.2002 8.5799 17.0757 8.73259Z" fill="#67CC65"/>
</svg>
