<svg width="30" height="30" viewBox="0 0 30 30" fill="none" xmlns="http://www.w3.org/2000/svg">
<path d="M24.2389 14.4203H22.6182C22.5871 14.4203 22.5573 14.4079 22.5353 14.386C22.5133 14.364 22.501 14.3342 22.501 14.3031V9.77731C22.501 9.17342 22.2611 8.59427 21.8341 8.16726C21.4071 7.74024 20.8279 7.50035 20.224 7.50035H15.6982C15.6672 7.50035 15.6374 7.48801 15.6154 7.46603C15.5934 7.44405 15.5811 7.41424 15.5811 7.38316V5.76246C15.5811 4.17223 14.3213 2.84098 12.7311 2.81344C12.3458 2.80667 11.963 2.8767 11.6051 3.01944C11.2471 3.16218 10.9212 3.37477 10.6463 3.64481C10.3714 3.91485 10.1531 4.23694 10.004 4.59227C9.85486 4.9476 9.77803 5.32907 9.77793 5.71441V7.38316C9.77793 7.41424 9.76558 7.44405 9.74361 7.46603C9.72163 7.48801 9.69182 7.50035 9.66074 7.50035H5.13496C4.51984 7.50221 3.93043 7.74739 3.49547 8.18235C3.06051 8.61731 2.81533 9.20671 2.81348 9.82184V13.9457C2.81348 13.9767 2.82582 14.0066 2.8478 14.0285C2.86978 14.0505 2.89958 14.0629 2.93066 14.0629H4.50742C6.22832 14.0629 7.65273 15.5558 7.67676 17.2767C7.70137 19.0269 6.29922 20.6254 4.5543 20.6254H2.93066C2.89958 20.6254 2.86978 20.6377 2.8478 20.6597C2.82582 20.6817 2.81348 20.7115 2.81348 20.7425V24.8664C2.81533 25.4815 3.06051 26.0709 3.49547 26.5059C3.93043 26.9408 4.51984 27.186 5.13496 27.1879H9.25879C9.28987 27.1879 9.31968 27.1755 9.34165 27.1535C9.36363 27.1316 9.37598 27.1018 9.37598 27.0707V25.8443C9.37598 24.0701 10.8262 22.5425 12.5986 22.5009C14.3623 22.4599 15.9385 23.691 15.9385 25.447V27.0707C15.9385 27.1018 15.9508 27.1316 15.9728 27.1535C15.9948 27.1755 16.0246 27.1879 16.0557 27.1879H20.224C20.8279 27.1879 21.4071 26.948 21.8341 26.521C22.2611 26.0939 22.501 25.5148 22.501 24.9109V20.3406C22.501 20.3095 22.5133 20.2797 22.5353 20.2577C22.5573 20.2358 22.5871 20.2234 22.6182 20.2234H24.2869C25.9059 20.2234 27.1885 18.8951 27.1885 17.2703C27.1885 15.6455 25.8291 14.4203 24.2389 14.4203Z" stroke="#5BC858" stroke-width="2.5" stroke-linecap="round" stroke-linejoin="round"/>
</svg>
