<svg width="30" height="30" viewBox="0 0 30 30" fill="none" xmlns="http://www.w3.org/2000/svg">
<path d="M9.37902 8.44213C10.9335 8.44213 12.1936 7.182 12.1936 5.62756C12.1936 4.07311 10.9335 2.81299 9.37902 2.81299C7.82458 2.81299 6.56445 4.07311 6.56445 5.62756C6.56445 7.182 7.82458 8.44213 9.37902 8.44213Z" stroke="#5BC858" stroke-width="2.5" stroke-linecap="round" stroke-linejoin="round"/>
<path d="M9.37902 27.1926C10.9335 27.1926 12.1936 25.9325 12.1936 24.378C12.1936 22.8236 10.9335 21.5635 9.37902 21.5635C7.82458 21.5635 6.56445 22.8236 6.56445 24.378C6.56445 25.9325 7.82458 27.1926 9.37902 27.1926Z" stroke="#5BC858" stroke-width="2.5" stroke-linecap="round" stroke-linejoin="round"/>
<path d="M9.37646 21.5635V8.43848" stroke="#5BC858" stroke-width="2.5" stroke-linecap="round" stroke-linejoin="round"/>
<path d="M20.6266 12.1916C22.181 12.1916 23.4412 10.9315 23.4412 9.37707C23.4412 7.82263 22.181 6.5625 20.6266 6.5625C19.0721 6.5625 17.812 7.82263 17.812 9.37707C17.812 10.9315 19.0721 12.1916 20.6266 12.1916Z" stroke="#5BC858" stroke-width="2.5" stroke-linecap="round" stroke-linejoin="round"/>
<path d="M20.6281 12.1885C20.6281 19.6895 9.37646 15.0014 9.37646 21.5648" stroke="#5BC858" stroke-width="2.5" stroke-linecap="round" stroke-linejoin="round"/>
</svg>
