<svg width="20" height="20" viewBox="0 0 20 20" fill="none" xmlns="http://www.w3.org/2000/svg">
<path d="M10.0004 8.7516C10.6913 8.7516 11.2514 8.19154 11.2514 7.50068C11.2514 6.80981 10.6913 6.24976 10.0004 6.24976C9.30957 6.24976 8.74951 6.80981 8.74951 7.50068C8.74951 8.19154 9.30957 8.7516 10.0004 8.7516Z" fill="#4F615D"/>
<path d="M9.99951 1.25C6.55342 1.25 3.74951 3.93164 3.74951 7.22656C3.74951 8.7957 4.46475 10.8824 5.87529 13.4289C7.00811 15.4734 8.31865 17.3223 9.00029 18.2422C9.11548 18.3994 9.26608 18.5272 9.43988 18.6153C9.61369 18.7034 9.80582 18.7493 10.0007 18.7493C10.1956 18.7493 10.3877 18.7034 10.5615 18.6153C10.7353 18.5272 10.8859 18.3994 11.0011 18.2422C11.6815 17.3223 12.9933 15.4734 14.1261 13.4289C15.5343 10.8832 16.2495 8.79648 16.2495 7.22656C16.2495 3.93164 13.4456 1.25 9.99951 1.25ZM9.99951 10C9.50506 10 9.02171 9.85338 8.61059 9.57867C8.19946 9.30397 7.87903 8.91352 7.68981 8.45671C7.50059 7.99989 7.45109 7.49723 7.54755 7.01227C7.64401 6.52732 7.88211 6.08186 8.23175 5.73223C8.58138 5.3826 9.02683 5.1445 9.51179 5.04804C9.99674 4.95157 10.4994 5.00108 10.9562 5.1903C11.413 5.37952 11.8035 5.69995 12.0782 6.11107C12.3529 6.5222 12.4995 7.00555 12.4995 7.5C12.4988 8.16282 12.2352 8.79828 11.7665 9.26697C11.2978 9.73565 10.6623 9.99928 9.99951 10Z" fill="#4F615D"/>
</svg>
