<svg width="20" height="20" viewBox="0 0 20 20" fill="none" xmlns="http://www.w3.org/2000/svg">
<path d="M16.562 3.12451H3.43701C2.85704 3.12513 2.301 3.3558 1.8909 3.7659C1.4808 4.176 1.25013 4.73204 1.24951 5.31201V14.687C1.25013 15.267 1.4808 15.823 1.8909 16.2331C2.301 16.6432 2.85704 16.8739 3.43701 16.8745H16.562C17.142 16.8739 17.698 16.6432 18.1081 16.2331C18.5182 15.823 18.7489 15.267 18.7495 14.687V5.31201C18.7489 4.73204 18.5182 4.176 18.1081 3.7659C17.698 3.3558 17.142 3.12513 16.562 3.12451ZM16.0081 6.74287L10.3831 11.1179C10.2734 11.2031 10.1384 11.2494 9.99951 11.2494C9.86058 11.2494 9.72561 11.2031 9.61592 11.1179L3.99092 6.74287C3.92483 6.69296 3.86932 6.63042 3.82761 6.55887C3.7859 6.48732 3.75883 6.4082 3.74797 6.3261C3.7371 6.244 3.74267 6.16056 3.76433 6.08062C3.78599 6.00069 3.82333 5.92586 3.87416 5.86048C3.92499 5.7951 3.98831 5.74048 4.06044 5.69978C4.13257 5.65908 4.21206 5.63313 4.29431 5.62342C4.37656 5.61371 4.45991 5.62045 4.53953 5.64324C4.61915 5.66602 4.69345 5.7044 4.75811 5.75615L9.99951 9.83272L15.2409 5.75615C15.372 5.65718 15.5367 5.61377 15.6996 5.63531C15.8624 5.65686 16.0102 5.74162 16.111 5.87128C16.2118 6.00094 16.2575 6.16506 16.2383 6.32817C16.219 6.49127 16.1363 6.64025 16.0081 6.74287Z" fill="#4F615D"/>
</svg>
