<svg width="30" height="30" viewBox="0 0 30 30" fill="none" xmlns="http://www.w3.org/2000/svg">
<path d="M23.9042 3.06033C23.9042 3.06033 18.8276 9.37557 14.064 9.37557H4.68897C4.44032 9.37557 4.20187 9.47434 4.02605 9.65016C3.85024 9.82597 3.75146 10.0644 3.75146 10.3131V15.9381C3.75146 16.1867 3.85024 16.4252 4.02605 16.601C4.20187 16.7768 4.44032 16.8756 4.68897 16.8756H14.064C18.8276 16.8756 23.9042 23.2172 23.9042 23.2172C24.2593 23.6859 25.314 23.3648 25.314 22.6412V3.63338C25.314 2.91209 24.3179 2.53065 23.9042 3.06033Z" stroke="#5BC858" stroke-width="2.5" stroke-linecap="round" stroke-linejoin="round"/>
<path d="M3.75264 15.0032C3.75264 15.0032 2.81445 14.6514 2.81445 13.1269C2.81445 11.6023 3.75264 11.2505 3.75264 11.2505" stroke="#5BC858" stroke-width="2.5" stroke-linecap="round" stroke-linejoin="round"/>
<path d="M26.251 14.4266C26.251 14.4266 27.193 14.1717 27.193 13.1313C27.193 12.091 26.251 11.8361 26.251 11.8361" stroke="#5BC858" stroke-width="2.5" stroke-linecap="round" stroke-linejoin="round"/>
<path d="M15.0015 9.37524V16.8763" stroke="#5BC858" stroke-width="2.5" stroke-linecap="round" stroke-linejoin="round"/>
<path d="M6.56396 9.37524V16.8763" stroke="#5BC858" stroke-width="2.5" stroke-linecap="round" stroke-linejoin="round"/>
<path d="M8.43701 16.8751V26.7203C8.43701 26.8446 8.4864 26.9639 8.57432 27.0518C8.66224 27.1397 8.78149 27.1891 8.90583 27.1891H12.0117C12.1586 27.1891 12.3035 27.1547 12.4346 27.0885C12.5657 27.0223 12.6794 26.9262 12.7666 26.808C12.8538 26.6898 12.912 26.5528 12.9365 26.408C12.961 26.2631 12.9512 26.1146 12.9078 25.9743C12.4167 24.399 11.2499 22.6228 11.2499 19.688H12.1875C12.4362 19.688 12.6747 19.5892 12.8506 19.4134C13.0264 19.2376 13.1252 18.9991 13.1252 18.7504V17.8128C13.1252 17.5641 13.0264 17.3256 12.8506 17.1497C12.6747 16.9739 12.4362 16.8751 12.1875 16.8751H11.2499" stroke="#5BC858" stroke-width="2.5" stroke-linecap="round" stroke-linejoin="round"/>
</svg>
