<svg width="30" height="30" viewBox="0 0 30 30" fill="none" xmlns="http://www.w3.org/2000/svg">
<path d="M21.5645 7.50122H26.2554" stroke="#5BC858" stroke-width="2.5" stroke-linecap="round" stroke-linejoin="round"/>
<path d="M3.75146 7.50122H17.814" stroke="#5BC858" stroke-width="2.5" stroke-linecap="round" stroke-linejoin="round"/>
<path d="M21.5645 22.5005H26.2554" stroke="#5BC858" stroke-width="2.5" stroke-linecap="round" stroke-linejoin="round"/>
<path d="M3.75146 22.5005H17.814" stroke="#5BC858" stroke-width="2.5" stroke-linecap="round" stroke-linejoin="round"/>
<path d="M12.189 15.002H26.2515" stroke="#5BC858" stroke-width="2.5" stroke-linecap="round" stroke-linejoin="round"/>
<path d="M3.75146 15.002H8.44241" stroke="#5BC858" stroke-width="2.5" stroke-linecap="round" stroke-linejoin="round"/>
<path d="M19.6884 9.37898C20.7247 9.37898 21.5648 8.5389 21.5648 7.5026C21.5648 6.4663 20.7247 5.62622 19.6884 5.62622C18.6521 5.62622 17.812 6.4663 17.812 7.5026C17.812 8.5389 18.6521 9.37898 19.6884 9.37898Z" stroke="#5BC858" stroke-width="2.5" stroke-linecap="round" stroke-linejoin="round"/>
<path d="M10.3153 16.8785C11.3516 16.8785 12.1917 16.0384 12.1917 15.0021C12.1917 13.9658 11.3516 13.1257 10.3153 13.1257C9.27905 13.1257 8.43896 13.9658 8.43896 15.0021C8.43896 16.0384 9.27905 16.8785 10.3153 16.8785Z" stroke="#5BC858" stroke-width="2.5" stroke-linecap="round" stroke-linejoin="round"/>
<path d="M19.6884 24.3785C20.7247 24.3785 21.5648 23.5384 21.5648 22.5021C21.5648 21.4658 20.7247 20.6257 19.6884 20.6257C18.6521 20.6257 17.812 21.4658 17.812 22.5021C17.812 23.5384 18.6521 24.3785 19.6884 24.3785Z" stroke="#5BC858" stroke-width="2.5" stroke-linecap="round" stroke-linejoin="round"/>
</svg>
