<svg width="30" height="30" viewBox="0 0 30 30" fill="none" xmlns="http://www.w3.org/2000/svg">
<path d="M23.5574 9.84484C23.3857 12.2282 21.6177 14.0642 19.6897 14.0642C17.7617 14.0642 15.9907 12.2288 15.8219 9.84484C15.6461 7.36538 17.3673 5.62549 19.6897 5.62549C22.0121 5.62549 23.7332 7.41051 23.5574 9.84484Z" stroke="#5BC858" stroke-width="2.5" stroke-linecap="round" stroke-linejoin="round"/>
<path d="M19.6882 17.814C15.8697 17.814 12.1976 19.7106 11.2777 23.4044C11.1558 23.8931 11.4623 24.3765 11.9644 24.3765H27.4127C27.9148 24.3765 28.2195 23.8931 28.0994 23.4044C27.1795 19.6515 23.5074 17.814 19.6882 17.814Z" stroke="#5BC858" stroke-width="2.5" stroke-miterlimit="10"/>
<path d="M11.7217 10.8973C11.5846 12.8012 10.1555 14.3006 8.61499 14.3006C7.07452 14.3006 5.64307 12.8018 5.50825 10.8973C5.36816 8.91659 6.75915 7.50098 8.61499 7.50098C10.4708 7.50098 11.8618 8.95294 11.7217 10.8973Z" stroke="#5BC858" stroke-width="2.5" stroke-linecap="round" stroke-linejoin="round"/>
<path d="M12.0714 17.9298C11.0136 17.4451 9.84859 17.2588 8.61384 17.2588C5.56653 17.2588 2.63056 18.7737 1.89511 21.7243C1.79841 22.1146 2.04337 22.5007 2.44421 22.5007H9.02406" stroke="#5BC858" stroke-width="2.5" stroke-miterlimit="10" stroke-linecap="round"/>
</svg>
