<svg width="30" height="30" viewBox="0 0 30 30" fill="none" xmlns="http://www.w3.org/2000/svg">
<g clip-path="url(#clip0_2009_462)">
<path d="M19.6875 0.933838H10.3125C8.7592 0.933838 7.5 2.19304 7.5 3.74634V26.2463C7.5 27.7996 8.7592 29.0588 10.3125 29.0588H19.6875C21.2408 29.0588 22.5 27.7996 22.5 26.2463V3.74634C22.5 2.19304 21.2408 0.933838 19.6875 0.933838Z" stroke="#5BC858" stroke-width="2.5" stroke-linecap="round" stroke-linejoin="round"/>
<path d="M10.3125 0.933838H11.719C11.8433 0.933838 11.9625 0.983231 12.0505 1.07115C12.1384 1.15907 12.1878 1.27832 12.1878 1.40265C12.1878 1.65133 12.2866 1.88982 12.4624 2.06566C12.6382 2.2415 12.8767 2.34029 13.1254 2.34029H16.8759C17.1246 2.34029 17.3631 2.2415 17.5389 2.06566C17.7148 1.88982 17.8136 1.65133 17.8136 1.40265C17.8136 1.27832 17.863 1.15907 17.9509 1.07115C18.0388 0.983231 18.1581 0.933838 18.2824 0.933838H19.6888" stroke="#5BC858" stroke-width="2.5" stroke-linecap="round" stroke-linejoin="round"/>
</g>
<defs>
<clipPath id="clip0_2009_462">
<rect width="30" height="30" fill="white"/>
</clipPath>
</defs>
</svg>
