<svg width="30" height="30" viewBox="0 0 30 30" fill="none" xmlns="http://www.w3.org/2000/svg">
<path d="M15.3674 11.2689C14.598 11.1929 13.8239 11.3566 13.1512 11.7375C12.4784 12.1185 11.9398 12.6981 11.6091 13.397C11.2785 14.0958 11.1719 14.8798 11.304 15.6416C11.4362 16.4034 11.8005 17.1057 12.3472 17.6524C12.8939 18.1991 13.5962 18.5634 14.358 18.6956C15.1198 18.8277 15.9038 18.7211 16.6027 18.3905C17.3015 18.0598 17.8811 17.5212 18.2621 16.8485C18.643 16.1757 18.8067 15.4016 18.7307 14.6322C18.6441 13.7697 18.2619 12.9636 17.6489 12.3507C17.036 11.7377 16.23 11.3555 15.3674 11.2689V11.2689ZM24.3967 15.0007C24.3943 15.4083 24.3644 15.8153 24.3071 16.2189L26.9561 18.2966C27.0715 18.3922 27.1492 18.5257 27.1755 18.6732C27.2017 18.8207 27.1749 18.9727 27.0997 19.1023L24.5936 23.4382C24.5175 23.5666 24.3985 23.6639 24.2577 23.7131C24.1168 23.7623 23.9631 23.7602 23.8237 23.7072L21.1928 22.6478C21.0477 22.59 20.8906 22.5692 20.7355 22.5871C20.5803 22.605 20.4321 22.6611 20.304 22.7503C19.9024 23.0268 19.4805 23.2725 19.0418 23.4851C18.9039 23.5521 18.7846 23.6521 18.6945 23.7762C18.6044 23.9002 18.5462 24.0446 18.5251 24.1964L18.1307 27.0025C18.1048 27.1507 18.0283 27.2853 17.9141 27.3833C17.8 27.4813 17.6553 27.5366 17.5049 27.5398H12.4928C12.3449 27.5372 12.2023 27.4844 12.0884 27.3899C11.9745 27.2954 11.8963 27.165 11.8665 27.0201L11.4727 24.2181C11.4506 24.0646 11.3909 23.9188 11.2989 23.7939C11.2069 23.669 11.0854 23.5688 10.9454 23.5021C10.5072 23.2906 10.0867 23.0443 9.68794 22.7656C9.56026 22.6767 9.41249 22.6211 9.25793 22.6036C9.10337 22.5861 8.94689 22.6073 8.80259 22.6654L6.17232 23.7242C6.03293 23.7772 5.87928 23.7794 5.73844 23.7303C5.59759 23.6813 5.47859 23.584 5.4024 23.4558L2.89634 19.1199C2.821 18.9903 2.79407 18.8382 2.82036 18.6907C2.84665 18.5432 2.92444 18.4098 3.0399 18.3142L5.27876 16.5564C5.40142 16.459 5.49782 16.3326 5.55921 16.1885C5.62061 16.0444 5.64505 15.8873 5.63033 15.7314C5.60923 15.4871 5.59634 15.2433 5.59634 14.999C5.59634 14.7546 5.60865 14.5144 5.63033 14.2753C5.64344 14.1204 5.6178 13.9646 5.55571 13.822C5.49362 13.6794 5.39704 13.5545 5.27466 13.4585L3.03697 11.7007C2.92339 11.6047 2.84723 11.4717 2.82184 11.3252C2.79645 11.1786 2.82345 11.0278 2.8981 10.8992L5.40415 6.56323C5.48026 6.43491 5.59922 6.33756 5.74007 6.28836C5.88092 6.23916 6.03462 6.24126 6.17408 6.29429L8.80493 7.35366C8.95002 7.41143 9.10716 7.4323 9.26229 7.4144C9.41742 7.39651 9.56568 7.3404 9.6938 7.25112C10.0953 6.97463 10.5172 6.729 10.9559 6.51636C11.0938 6.44933 11.2131 6.34937 11.3032 6.22531C11.3934 6.10125 11.4516 5.95691 11.4727 5.80503L11.867 2.99897C11.8929 2.85078 11.9695 2.71618 12.0836 2.61818C12.1978 2.52018 12.3424 2.46485 12.4928 2.46167H17.5049C17.6529 2.46423 17.7955 2.5171 17.9094 2.61157C18.0232 2.70604 18.1015 2.83648 18.1313 2.9814L18.5251 5.78335C18.5472 5.9369 18.6069 6.08262 18.6989 6.20753C18.7909 6.33245 18.9123 6.4327 19.0524 6.49937C19.4906 6.71086 19.911 6.95716 20.3098 7.23589C20.4375 7.32472 20.5853 7.3804 20.7398 7.39789C20.8944 7.41538 21.0509 7.39414 21.1952 7.33608L23.8254 6.27729C23.9648 6.22422 24.1185 6.22203 24.2593 6.27112C24.4002 6.32021 24.5192 6.41743 24.5954 6.54565L27.1014 10.8816C27.1768 11.0111 27.2037 11.1632 27.1774 11.3108C27.1511 11.4583 27.0733 11.5917 26.9579 11.6873L24.719 13.4451C24.5958 13.5421 24.4988 13.6684 24.4369 13.8125C24.375 13.9566 24.3501 14.1139 24.3645 14.2701C24.3838 14.5126 24.3967 14.7564 24.3967 15.0007Z" stroke="#5BC858" stroke-width="2.5" stroke-linecap="round" stroke-linejoin="round"/>
</svg>
