<svg width="30" height="30" viewBox="0 0 30 30" fill="none" xmlns="http://www.w3.org/2000/svg">
<path d="M20.626 1.87451H9.37598C7.82268 1.87451 6.56348 3.13371 6.56348 4.68701V19.687C6.56348 21.2403 7.82268 22.4995 9.37598 22.4995H20.626C22.1793 22.4995 23.4385 21.2403 23.4385 19.687V4.68701C23.4385 3.13371 22.1793 1.87451 20.626 1.87451Z" stroke="#5BC858" stroke-width="2.5" stroke-miterlimit="10"/>
<path d="M12.188 4.68738H17.8171" stroke="#5BC858" stroke-width="2.5" stroke-linecap="round" stroke-linejoin="round"/>
<path d="M21.5635 7.50012H8.43848C7.40294 7.50012 6.56348 8.33959 6.56348 9.37512V11.2501C6.56348 12.2857 7.40294 13.1251 8.43848 13.1251H21.5635C22.599 13.1251 23.4385 12.2857 23.4385 11.2501V9.37512C23.4385 8.33959 22.599 7.50012 21.5635 7.50012Z" stroke="#5BC858" stroke-width="2.5" stroke-linecap="round" stroke-linejoin="round"/>
<path d="M10.3224 19.7064C10.8448 19.7064 11.2683 19.2829 11.2683 18.7605C11.2683 18.2381 10.8448 17.8146 10.3224 17.8146C9.79997 17.8146 9.37646 18.2381 9.37646 18.7605C9.37646 19.2829 9.79997 19.7064 10.3224 19.7064Z" stroke="#5BC858" stroke-width="2.5" stroke-linejoin="round"/>
<path d="M19.6964 19.7064C20.2188 19.7064 20.6424 19.2829 20.6424 18.7605C20.6424 18.2381 20.2188 17.8146 19.6964 17.8146C19.174 17.8146 18.7505 18.2381 18.7505 18.7605C18.7505 19.2829 19.174 19.7064 19.6964 19.7064Z" stroke="#5BC858" stroke-width="2.5" stroke-linejoin="round"/>
<path d="M8.43799 27.1873H21.563" stroke="#5BC858" stroke-width="2.5" stroke-linecap="round" stroke-linejoin="round"/>
<path d="M19.688 25.3119L22.514 28.1379" stroke="#5BC858" stroke-width="2.5" stroke-linecap="round" stroke-linejoin="round"/>
<path d="M10.3261 25.3119L7.5 28.1379" stroke="#5BC858" stroke-width="2.5" stroke-linecap="round" stroke-linejoin="round"/>
</svg>
