<svg width="141" height="31" viewBox="0 0 141 31" fill="none" xmlns="http://www.w3.org/2000/svg">
<g clip-path="url(#clip0_20_2616)">
<path d="M36.2782 21.7114V30.6312H32.7827V8.67285H36.7437C38.6847 8.67285 40.1514 8.79766 41.1439 9.0556C42.1451 9.31354 43.0234 9.79615 43.7875 10.5034C45.1224 11.7349 45.7812 13.2908 45.7812 15.1713C45.7812 17.1849 45.0698 18.7742 43.647 19.9474C42.2241 21.1206 40.3095 21.7114 37.8943 21.7114H36.2695H36.2782ZM36.2782 18.6411H37.5869C40.8013 18.6411 42.4086 17.4678 42.4086 15.1297C42.4086 12.7916 40.7487 11.7349 37.4376 11.7349H36.2782V18.6494V18.6411Z" fill="#003C2F" stroke="#003C2F" stroke-width="0.3"/>
<path d="M48.3809 16.8051H51.5976V18.0431C52.1909 17.4282 52.7089 17.0045 53.1684 16.7801C53.6363 16.5475 54.1878 16.4229 54.8228 16.4229C55.6667 16.4229 56.5523 16.697 57.4798 17.2454L56.0092 20.1702C55.3993 19.7381 54.8061 19.5138 54.2212 19.5138C52.4666 19.5138 51.5976 20.8266 51.5976 23.4605V30.6312H48.3809V16.7968V16.8051Z" fill="#003C2F" stroke="#003C2F" stroke-width="0.3"/>
<path d="M57.48 23.43C57.48 21.4903 58.1727 19.8335 59.5583 18.4676C60.9438 17.1017 62.6354 16.4229 64.6251 16.4229C66.6148 16.4229 68.3225 17.1098 69.7161 18.4838C71.0936 19.8577 71.7783 21.5388 71.7783 23.5351C71.7783 25.5314 71.0855 27.2448 69.7 28.6026C68.3064 29.9523 66.5906 30.6312 64.5687 30.6312C62.5468 30.6312 60.8713 29.9442 59.518 28.5622C58.1566 27.1963 57.48 25.4829 57.48 23.422V23.43ZM60.6457 23.4866C60.6457 24.8282 61.0002 25.8951 61.7171 26.679C62.4501 27.4711 63.4168 27.8671 64.6251 27.8671C65.8334 27.8671 66.8081 27.4792 67.5331 26.6952C68.2581 25.9112 68.6206 24.8686 68.6206 23.5593C68.6206 22.25 68.2581 21.2075 67.5331 20.4235C66.8 19.6314 65.8334 19.2354 64.6251 19.2354C63.4168 19.2354 62.4824 19.6314 61.7493 20.4235C61.0163 21.2155 60.6457 22.2339 60.6457 23.4866Z" fill="#003C2F" stroke="#003C2F" stroke-width="0.3"/>
<path d="M87.3763 17.3841V21.5117C86.6282 20.6474 85.965 20.0497 85.3699 19.7346C84.7918 19.4035 84.1031 19.2338 83.3209 19.2338C82.0882 19.2338 81.0679 19.6458 80.2517 20.4616C79.4356 21.2774 79.0275 22.3033 79.0275 23.5391C79.0275 24.775 79.4186 25.8331 80.2007 26.649C80.9914 27.4567 82.0031 27.8606 83.2359 27.8606C84.0181 27.8606 84.7152 27.699 85.3104 27.3759C85.8885 27.0609 86.5771 26.4551 87.3593 25.5504V29.6538C86.033 30.3081 84.7067 30.6312 83.3804 30.6312C81.187 30.6312 79.359 29.9608 77.8882 28.6118C76.4174 27.2629 75.6777 25.5827 75.6777 23.5714C75.6777 21.5601 76.4259 19.8719 77.9137 18.4907C79.4016 17.1094 81.238 16.4229 83.4059 16.4229C84.8003 16.4229 86.118 16.7379 87.3593 17.376L87.3763 17.3841Z" fill="#003C2F" stroke="#003C2F" stroke-width="0.3"/>
<path d="M89.9761 10.7557C89.9761 10.1907 90.1633 9.70162 90.5454 9.28843C90.9276 8.87523 91.3877 8.67285 91.918 8.67285C92.4484 8.67285 92.9241 8.88367 93.3063 9.28843C93.6884 9.69319 93.8756 10.1907 93.8756 10.7726C93.8756 11.3544 93.6806 11.8604 93.3063 12.2735C92.9319 12.6867 92.4718 12.8891 91.9336 12.8891C91.3955 12.8891 90.9276 12.6867 90.5454 12.2735C90.1633 11.8604 89.9761 11.3544 89.9761 10.7641V10.7557ZM93.4311 16.591V30.6312H90.4284V16.591H93.4311Z" fill="#003C2F" stroke="#003C2F" stroke-width="0.3"/>
<path d="M107.51 6.09772H110.773V30.2297H107.51V28.7747C106.224 30.0123 104.778 30.631 103.163 30.631C101.236 30.631 99.6375 29.937 98.3691 28.5406C97.1093 27.1191 96.4751 25.3464 96.4751 23.2225C96.4751 21.0987 97.1093 19.4096 98.3691 18.0215C99.6205 16.6251 101.193 15.9227 103.096 15.9227C104.745 15.9227 106.216 16.5917 107.518 17.9212V6.08936L107.51 6.09772ZM99.7897 23.2309C99.7897 24.5688 100.153 25.6474 100.872 26.492C101.616 27.3365 102.546 27.7629 103.679 27.7629C104.88 27.7629 105.852 27.3532 106.596 26.5338C107.34 25.6892 107.712 24.6106 107.712 23.3061C107.712 22.0017 107.34 20.9231 106.596 20.0785C105.852 19.2507 104.888 18.8326 103.705 18.8326C102.588 18.8326 101.65 19.2507 100.897 20.0869C100.153 20.9314 99.7812 21.985 99.7812 23.2309H99.7897Z" fill="#003C2F" stroke="#003C2F" stroke-width="0.3"/>
<path d="M117.846 16.4229V24.3486C117.846 26.6392 118.742 27.7845 120.526 27.7845C122.31 27.7845 123.206 26.6392 123.206 24.3486V16.4229H126.371V24.4233C126.371 25.5271 126.232 26.4816 125.96 27.2866C125.697 28.0086 125.245 28.656 124.596 29.2286C123.527 30.1664 122.17 30.6312 120.518 30.6312C118.866 30.6312 117.526 30.1664 116.457 29.2286C115.799 28.656 115.339 28.0003 115.067 27.2866C114.804 26.6475 114.673 25.6848 114.673 24.4233V16.4229H117.838H117.846Z" fill="#003C2F" stroke="#003C2F" stroke-width="0.3"/>
<path d="M139.733 19.0753L136.95 20.4419C136.512 19.609 135.969 19.1966 135.322 19.1966C135.015 19.1966 134.744 19.2936 134.525 19.4796C134.306 19.6656 134.192 19.9082 134.192 20.2074C134.192 20.725 134.84 21.2344 136.136 21.7439C137.921 22.4555 139.12 23.1106 139.742 23.709C140.363 24.3074 140.67 25.1161 140.67 26.1269C140.67 27.4289 140.153 28.5125 139.112 29.3858C138.105 30.2188 136.888 30.6312 135.462 30.6312C133.019 30.6312 131.286 29.5314 130.271 27.3318L133.142 26.1026C133.545 26.7496 133.842 27.1539 134.052 27.3318C134.464 27.6795 134.954 27.8574 135.514 27.8574C136.652 27.8574 137.221 27.3803 137.221 26.418C137.221 25.8681 136.783 25.3506 135.908 24.8735C135.567 24.7198 135.234 24.5662 134.893 24.4206C134.551 24.275 134.21 24.1214 133.86 23.9677C132.879 23.523 132.197 23.0863 131.794 22.6415C131.286 22.0835 131.033 21.3557 131.033 20.4743C131.033 19.3017 131.47 18.3394 132.337 17.5712C133.221 16.8029 134.297 16.4229 135.567 16.4229C137.431 16.4229 138.814 17.3124 139.724 19.0915L139.733 19.0753Z" fill="#003C2F" stroke="#003C2F" stroke-width="0.3"/>
<path d="M22.1219 19.5746C20.0024 21.1896 17.5348 21.8761 16.0331 22.0206V18.2011C16.0765 18.1941 16.1299 18.1849 16.1922 18.1733C16.375 18.1391 16.6349 18.0833 16.9459 17.9968C17.5674 17.824 18.396 17.5274 19.2214 17.0323C20.877 16.039 22.5192 14.244 22.4423 11.0686C22.404 9.48897 21.9915 8.30559 21.3486 7.42262C20.7062 6.54028 19.8418 5.96891 18.9175 5.5992C17.191 4.90857 15.2334 4.9143 14.071 4.91771C13.9937 4.91793 13.9198 4.91815 13.8498 4.91815H4.12716H3.97716V5.06815V29.1813H0.436621V1.07285H14.8957C17.7265 1.07285 20.5029 1.96788 22.6568 3.75254C24.5128 5.29313 26.1335 7.63873 26.1335 11.1463C26.1335 15.2436 24.3127 17.9053 22.1219 19.5746Z" fill="#003C2F" stroke="#003C2F" stroke-width="0.3"/>
<path d="M19.9426 25.7703V23.4684H23.5336V29.1897H8.23545V7.53135H11.8264V25.7703V25.9203H11.9764H19.7926H19.9426V25.7703Z" fill="#5BC858" stroke="#5BC858" stroke-width="0.3"/>
</g>
<defs>
<clipPath id="clip0_20_2616">
<rect width="141" height="31" fill="white"/>
</clipPath>
</defs>
</svg>
